<svg width="176" height="30" viewBox="0 0 176 30" fill="none" xmlns="http://www.w3.org/2000/svg">
<path d="M175.899 4.2373H172.789L171.214 6.665L167.508 12.3508L165.932 14.7785L167.508 17.2062L171.214 22.9133L172.789 25.341H175.899L169.084 14.7785L175.899 4.2373Z" fill="white"/>
<path d="M163.845 4.2373H161.205V25.341H163.845V4.2373Z" fill="white"/>
<path d="M168.104 13.459H163.845V16.0996H168.104V13.459Z" fill="white"/>
<path d="M124.258 16.1414L127.324 7.7937L126.004 4.2373L118.018 25.341H120.893L123.3 18.782H123.278L124.258 16.1414Z" fill="white"/>
<path d="M128.623 4.2373H126.004L127.324 7.7937L128.623 4.2373Z" fill="white"/>
<path d="M124.257 16.1416L123.299 18.7822H131.413L130.497 16.4611L130.39 16.1416H124.257Z" fill="white"/>
<path d="M124.258 16.1416L123.278 18.7822H123.299L124.258 16.1416Z" fill="white"/>
<path d="M136.609 25.3197L128.623 4.2373L127.324 7.7937L130.39 16.1414L130.497 16.4608L133.755 25.3197H136.609Z" fill="white"/>
<path d="M130.39 16.1416L130.496 16.46L130.39 16.1416Z" fill="white"/>
<path d="M53.9196 16.0989C54.795 16.0989 55.6346 16.4466 56.2536 17.0656C56.8726 17.6846 57.2204 18.5242 57.2204 19.3996C57.2204 20.2751 56.8726 21.1146 56.2536 21.7336C55.6346 22.3526 54.795 22.7004 53.9196 22.7004H47.9995V16.0989H53.9409H53.9196ZM47.9995 6.8567H52.8761C53.7516 6.8567 54.5911 7.2045 55.2101 7.8235C55.8291 8.4425 56.1769 9.2821 56.1769 10.1575C56.1769 11.0329 55.8291 11.8725 55.2101 12.4915C54.5911 13.1105 53.7516 13.4582 52.8761 13.4582H47.9995V6.8567ZM57.0713 14.3526C57.9037 13.5179 58.469 12.4545 58.6953 11.2975C58.9215 10.1406 58.7985 8.9426 58.3419 7.8558C57.8852 6.769 57.1156 5.8426 56.1309 5.1944C55.1463 4.5463 53.991 4.2057 52.8122 4.2161H45.3589V25.3197H53.877C55.4493 25.3086 56.9541 24.679 58.0659 23.5672C59.1777 22.4554 59.8073 20.9506 59.8184 19.3783C59.8186 18.3726 59.5625 17.3835 59.0744 16.5042C58.5863 15.6249 57.8823 14.8844 57.0287 14.3526" fill="white"/>
<path d="M83.0942 4.2373H80.4536V25.341H83.0942V4.2373Z" fill="white"/>
<path d="M89.2273 4.2383H74.5122V6.8789H89.2273V4.2383Z" fill="white"/>
<path d="M68.7412 4.2373H66.1006V25.341H68.7412V4.2373Z" fill="white"/>
<path d="M144.212 4.2373H141.571V25.341H144.212V16.1201V4.2373ZM143.275 16.1201H148.151C149.707 16.1093 151.197 15.4908 152.303 14.3966C153.409 13.3025 154.044 11.8194 154.071 10.2639H151.431C151.431 11.1393 151.083 11.9789 150.464 12.5979C149.845 13.2169 149.005 13.5647 148.13 13.5647H143.253L143.275 16.1201ZM143.275 6.87801H148.151C148.59 6.88061 149.024 6.9708 149.428 7.1433C149.831 7.3157 150.197 7.56691 150.502 7.88221C150.807 8.19751 151.047 8.5706 151.206 8.9795C151.366 9.3885 151.442 9.8251 151.431 10.2639H154.071C154.066 8.6899 153.438 7.1819 152.325 6.0689C151.212 4.9559 149.704 4.32811 148.13 4.32251H143.253L143.275 6.87801Z" fill="white"/>
<path d="M149.77 15.2901L147.172 16.0993L147.874 17.2066L151.58 22.9138L153.156 25.3415H156.265L149.77 15.2901Z" fill="white"/>
<path d="M103.751 19.2931L110.437 9.05011V25.3197H113.078V4.2373H110.48L103.751 14.523L97.1069 4.2373H94.4663V25.3197H97.1069V9.0927L103.751 19.2931Z" fill="white"/>
<path d="M14.9067 27.6839C12.3538 27.6671 9.8631 26.8947 7.74864 25.4642C5.63417 24.0336 3.99064 22.009 3.02533 19.6456C2.06002 17.2822 1.81616 14.6859 2.3245 12.1841C2.83284 9.6823 4.07062 7.387 5.88173 5.5877C7.69285 3.7885 9.9962 2.5658 12.5013 2.0739C15.0064 1.582 17.601 1.8429 19.958 2.8237C22.315 3.8046 24.3288 5.4613 25.7455 7.5852C27.1621 9.709 27.9181 12.2047 27.9182 14.7577C27.9126 16.4608 27.5716 18.1461 26.9147 19.7174C26.2578 21.2887 25.2978 22.7153 24.0896 23.9156C22.8814 25.1159 21.4485 26.0665 19.8729 26.7131C18.2973 27.3596 16.6098 27.6895 14.9067 27.6839ZM14.9067 0C11.9585 0 9.07639 0.874302 6.625 2.5123C4.1736 4.1502 2.26297 6.4783 1.13472 9.2022C0.00645828 11.926 -0.288745 14.9233 0.286436 17.8149C0.861616 20.7065 2.28134 23.3626 4.36609 25.4474C6.45083 27.5321 9.10695 28.9519 11.9986 29.527C14.8902 30.1022 17.8874 29.807 20.6113 28.6788C23.3351 27.5505 25.6632 25.6399 27.3012 23.1885C28.9392 20.7371 29.8134 17.855 29.8134 14.9067C29.8134 10.9532 28.2429 7.1617 25.4474 4.3661C22.6518 1.5706 18.8602 0 14.9067 0Z" fill="white"/>
<path d="M16.8013 20.3587H12.5423V18.7829H15.2042V17.1644H12.6274V15.6525H16.8865C17.461 15.7077 17.9944 15.975 18.3825 16.4022C18.7706 16.8294 18.9856 17.3858 18.9856 17.963C18.9856 18.5402 18.7706 19.0967 18.3825 19.5239C17.9944 19.9511 17.461 20.2183 16.8865 20.2736L16.8013 20.3587ZM12.6274 9.15741H16.056C16.6305 9.21261 17.1639 9.4799 17.552 9.9071C17.9401 10.3343 18.1551 10.8908 18.1551 11.4679C18.1551 12.0451 17.9401 12.6016 17.552 13.0288C17.1639 13.456 16.6305 13.7233 16.056 13.7785H12.6274V9.15741ZM19.016 14.4173C19.5571 13.82 19.9175 13.0815 20.0555 12.2875C20.1935 11.4935 20.1034 10.6766 19.7956 9.9318C19.4879 9.187 18.9751 8.5448 18.3169 8.0797C17.6588 7.6147 16.8821 7.346 16.0773 7.3047H10.7748V17.1644H8.2832V18.7829H10.7748V22.1901H16.8013C17.9309 22.1901 19.0142 21.7414 19.8129 20.9427C20.6117 20.144 21.0604 19.0606 21.0604 17.9311C21.02 17.2378 20.8106 16.5649 20.4506 15.971C20.0906 15.3771 19.5908 14.8803 18.9947 14.5238" fill="white"/>
</svg>
